<svg xmlns="http://www.w3.org/2000/svg" width="496" height="488" viewBox="0 0 496 488" role="img" aria-label="defby.ai logo">
  <circle cx="248.68" cy="249.67" r="221.83" fill="#56807B"/>

  <polygon fill="#FFFFFF" points="184,259 259,186 288,289"/>
  <polygon fill="#FFFFFF" points="270,183 370,213 301,286"/>
  <polygon fill="#FFFFFF" points="182,271 285,301 211,371"/>
  <polygon fill="#FFFFFF" points="152,153 250,177 176,251"/>
  <polygon fill="#FFFFFF" points="224,376 296,306 340,349"/>
  <polygon fill="#FFFFFF" points="305,298 375,225 348,340"/>
  <polygon fill="#FFFFFF" points="269,168 288,120 368,199"/>
  <polygon fill="#FFFFFF" points="119,288 169,270 198,369"/>
  <polygon fill="#FFFFFF" points="164,144 275,118 257,167"/>
  <polygon fill="#FFFFFF" points="117,272 143,165 166,258 120,276"/>
</svg>
